<svg width="360" height="800" viewBox="0 0 360 800" fill="none" xmlns="http://www.w3.org/2000/svg">
<g clip-path="url(#clip0_2007_80)">
<rect width="360" height="800" fill="url(#paint0_linear_2007_80)"/>
<path d="M108.284 365L100.074 335.909H105.742L110.983 357.287H111.253L116.85 335.909H122.006L127.617 357.301H127.873L133.114 335.909H138.782L130.571 365H125.373L119.549 344.588H119.321L113.483 365H108.284ZM149.641 365.426C147.453 365.426 145.564 364.972 143.973 364.062C142.392 363.144 141.175 361.847 140.323 360.17C139.471 358.485 139.044 356.501 139.044 354.219C139.044 351.974 139.471 350.005 140.323 348.31C141.185 346.605 142.387 345.279 143.931 344.332C145.474 343.376 147.288 342.898 149.371 342.898C150.716 342.898 151.985 343.116 153.178 343.551C154.381 343.977 155.441 344.64 156.36 345.54C157.288 346.439 158.017 347.585 158.547 348.977C159.078 350.36 159.343 352.008 159.343 353.92V355.497H141.459V352.031H154.414C154.404 351.046 154.191 350.17 153.775 349.403C153.358 348.627 152.775 348.016 152.027 347.571C151.289 347.126 150.427 346.903 149.442 346.903C148.391 346.903 147.468 347.159 146.672 347.67C145.877 348.172 145.257 348.835 144.811 349.659C144.376 350.473 144.153 351.368 144.144 352.344V355.369C144.144 356.638 144.376 357.727 144.84 358.636C145.304 359.536 145.953 360.227 146.786 360.71C147.619 361.184 148.595 361.42 149.712 361.42C150.46 361.42 151.137 361.316 151.743 361.108C152.349 360.89 152.875 360.573 153.32 360.156C153.765 359.74 154.101 359.223 154.328 358.608L159.13 359.148C158.827 360.417 158.249 361.525 157.397 362.472C156.554 363.409 155.474 364.138 154.158 364.659C152.842 365.17 151.336 365.426 149.641 365.426ZM169.971 365.44C168.589 365.44 167.343 365.194 166.235 364.702C165.137 364.2 164.266 363.461 163.622 362.486C162.987 361.51 162.67 360.308 162.67 358.878C162.67 357.647 162.897 356.629 163.352 355.824C163.806 355.019 164.427 354.375 165.213 353.892C165.999 353.409 166.884 353.045 167.869 352.798C168.863 352.543 169.891 352.358 170.951 352.244C172.23 352.112 173.267 351.993 174.062 351.889C174.858 351.776 175.435 351.605 175.795 351.378C176.164 351.141 176.349 350.777 176.349 350.284V350.199C176.349 349.129 176.032 348.3 175.397 347.713C174.763 347.126 173.849 346.832 172.656 346.832C171.396 346.832 170.397 347.107 169.659 347.656C168.93 348.205 168.437 348.854 168.181 349.602L163.38 348.92C163.759 347.595 164.384 346.487 165.255 345.597C166.127 344.697 167.192 344.025 168.451 343.58C169.711 343.125 171.103 342.898 172.627 342.898C173.679 342.898 174.725 343.021 175.767 343.267C176.808 343.513 177.76 343.92 178.622 344.489C179.484 345.047 180.175 345.81 180.696 346.776C181.226 347.741 181.491 348.949 181.491 350.398V365H176.548V362.003H176.377C176.065 362.609 175.625 363.177 175.056 363.707C174.498 364.228 173.792 364.65 172.94 364.972C172.097 365.284 171.108 365.44 169.971 365.44ZM171.306 361.662C172.339 361.662 173.234 361.458 173.991 361.051C174.749 360.634 175.331 360.085 175.738 359.403C176.155 358.722 176.363 357.978 176.363 357.173V354.602C176.202 354.735 175.928 354.858 175.539 354.972C175.161 355.085 174.734 355.185 174.261 355.27C173.788 355.355 173.319 355.431 172.855 355.497C172.391 355.563 171.988 355.62 171.647 355.668C170.88 355.772 170.194 355.942 169.588 356.179C168.982 356.416 168.503 356.747 168.153 357.173C167.803 357.59 167.627 358.13 167.627 358.793C167.627 359.74 167.973 360.455 168.664 360.938C169.356 361.42 170.236 361.662 171.306 361.662ZM197.556 343.182V347.159H185.014V343.182H197.556ZM188.11 337.955H193.252V358.438C193.252 359.129 193.357 359.659 193.565 360.028C193.783 360.388 194.067 360.634 194.417 360.767C194.768 360.9 195.156 360.966 195.582 360.966C195.904 360.966 196.198 360.942 196.463 360.895C196.737 360.848 196.946 360.805 197.088 360.767L197.954 364.787C197.68 364.882 197.287 364.986 196.775 365.099C196.273 365.213 195.658 365.279 194.929 365.298C193.641 365.336 192.481 365.142 191.449 364.716C190.416 364.28 189.597 363.608 188.991 362.699C188.395 361.79 188.101 360.653 188.11 359.29V337.955ZM207.468 352.216V365H202.326V335.909H207.354V346.889H207.61C208.121 345.658 208.912 344.687 209.982 343.977C211.061 343.258 212.435 342.898 214.101 342.898C215.616 342.898 216.937 343.215 218.064 343.849C219.191 344.484 220.062 345.412 220.678 346.634C221.303 347.855 221.615 349.347 221.615 351.108V365H216.473V351.903C216.473 350.436 216.095 349.295 215.337 348.48C214.589 347.656 213.538 347.244 212.184 347.244C211.275 347.244 210.46 347.443 209.74 347.841C209.03 348.229 208.471 348.793 208.064 349.531C207.667 350.27 207.468 351.165 207.468 352.216ZM236.516 365.426C234.328 365.426 232.439 364.972 230.848 364.062C229.267 363.144 228.05 361.847 227.198 360.17C226.346 358.485 225.919 356.501 225.919 354.219C225.919 351.974 226.346 350.005 227.198 348.31C228.06 346.605 229.262 345.279 230.806 344.332C232.349 343.376 234.163 342.898 236.246 342.898C237.591 342.898 238.86 343.116 240.053 343.551C241.256 343.977 242.316 344.64 243.235 345.54C244.163 346.439 244.892 347.585 245.422 348.977C245.953 350.36 246.218 352.008 246.218 353.92V355.497H228.334V352.031H241.289C241.279 351.046 241.066 350.17 240.65 349.403C240.233 348.627 239.65 348.016 238.902 347.571C238.164 347.126 237.302 346.903 236.317 346.903C235.266 346.903 234.343 347.159 233.547 347.67C232.752 348.172 232.132 348.835 231.686 349.659C231.251 350.473 231.028 351.368 231.019 352.344V355.369C231.019 356.638 231.251 357.727 231.715 358.636C232.179 359.536 232.828 360.227 233.661 360.71C234.494 361.184 235.47 361.42 236.587 361.42C237.335 361.42 238.012 361.316 238.618 361.108C239.224 360.89 239.75 360.573 240.195 360.156C240.64 359.74 240.976 359.223 241.203 358.608L246.005 359.148C245.702 360.417 245.124 361.525 244.272 362.472C243.429 363.409 242.349 364.138 241.033 364.659C239.717 365.17 238.211 365.426 236.516 365.426ZM250.568 365V343.182H255.554V346.818H255.781C256.179 345.559 256.86 344.588 257.826 343.906C258.802 343.215 259.914 342.869 261.164 342.869C261.449 342.869 261.766 342.884 262.116 342.912C262.476 342.931 262.774 342.964 263.011 343.011V347.741C262.793 347.666 262.448 347.599 261.974 347.543C261.51 347.476 261.06 347.443 260.625 347.443C259.687 347.443 258.844 347.647 258.096 348.054C257.358 348.452 256.775 349.006 256.349 349.716C255.923 350.426 255.71 351.245 255.71 352.173V365H250.568ZM119.959 391.182V395.159H107.061V391.182H119.959ZM110.286 413V389.122C110.286 387.654 110.589 386.433 111.195 385.457C111.81 384.482 112.634 383.753 113.666 383.27C114.698 382.787 115.844 382.545 117.104 382.545C117.994 382.545 118.785 382.616 119.476 382.759C120.167 382.901 120.679 383.028 121.01 383.142L119.987 387.119C119.769 387.053 119.495 386.987 119.163 386.92C118.832 386.845 118.463 386.807 118.055 386.807C117.099 386.807 116.422 387.039 116.024 387.503C115.636 387.957 115.442 388.611 115.442 389.463V413H110.286ZM132.683 413.426C130.552 413.426 128.705 412.957 127.143 412.02C125.58 411.082 124.368 409.771 123.506 408.085C122.654 406.4 122.228 404.43 122.228 402.176C122.228 399.922 122.654 397.948 123.506 396.253C124.368 394.558 125.58 393.241 127.143 392.304C128.705 391.366 130.552 390.898 132.683 390.898C134.813 390.898 136.66 391.366 138.222 392.304C139.785 393.241 140.992 394.558 141.844 396.253C142.706 397.948 143.137 399.922 143.137 402.176C143.137 404.43 142.706 406.4 141.844 408.085C140.992 409.771 139.785 411.082 138.222 412.02C136.66 412.957 134.813 413.426 132.683 413.426ZM132.711 409.307C133.866 409.307 134.832 408.99 135.609 408.355C136.385 407.711 136.963 406.849 137.342 405.77C137.73 404.69 137.924 403.488 137.924 402.162C137.924 400.827 137.73 399.619 137.342 398.54C136.963 397.451 136.385 396.584 135.609 395.94C134.832 395.296 133.866 394.974 132.711 394.974C131.527 394.974 130.542 395.296 129.756 395.94C128.98 396.584 128.397 397.451 128.009 398.54C127.63 399.619 127.441 400.827 127.441 402.162C127.441 403.488 127.63 404.69 128.009 405.77C128.397 406.849 128.98 407.711 129.756 408.355C130.542 408.99 131.527 409.307 132.711 409.307ZM147.501 413V391.182H152.487V394.818H152.714C153.112 393.559 153.794 392.588 154.76 391.906C155.735 391.215 156.848 390.869 158.098 390.869C158.382 390.869 158.699 390.884 159.05 390.912C159.41 390.931 159.708 390.964 159.945 391.011V395.741C159.727 395.666 159.381 395.599 158.908 395.543C158.444 395.476 157.994 395.443 157.558 395.443C156.621 395.443 155.778 395.647 155.03 396.054C154.291 396.452 153.709 397.006 153.283 397.716C152.857 398.426 152.643 399.245 152.643 400.173V413H147.501ZM172.121 413.426C169.934 413.426 168.045 412.972 166.454 412.062C164.872 411.144 163.656 409.847 162.803 408.17C161.951 406.485 161.525 404.501 161.525 402.219C161.525 399.974 161.951 398.005 162.803 396.31C163.665 394.605 164.868 393.279 166.411 392.332C167.955 391.376 169.768 390.898 171.852 390.898C173.196 390.898 174.465 391.116 175.658 391.551C176.861 391.977 177.922 392.64 178.84 393.54C179.768 394.439 180.497 395.585 181.028 396.977C181.558 398.36 181.823 400.008 181.823 401.92V403.497H163.94V400.031H176.894C176.885 399.046 176.672 398.17 176.255 397.403C175.838 396.627 175.256 396.016 174.508 395.571C173.769 395.126 172.907 394.903 171.923 394.903C170.871 394.903 169.948 395.159 169.153 395.67C168.357 396.172 167.737 396.835 167.292 397.659C166.856 398.473 166.634 399.368 166.624 400.344V403.369C166.624 404.638 166.856 405.727 167.32 406.636C167.784 407.536 168.433 408.227 169.266 408.71C170.1 409.184 171.075 409.42 172.192 409.42C172.941 409.42 173.618 409.316 174.224 409.108C174.83 408.89 175.355 408.573 175.8 408.156C176.246 407.74 176.582 407.223 176.809 406.608L181.61 407.148C181.307 408.417 180.729 409.525 179.877 410.472C179.034 411.409 177.955 412.138 176.638 412.659C175.322 413.17 173.817 413.426 172.121 413.426ZM195.69 413.426C193.512 413.426 191.642 412.948 190.08 411.991C188.527 411.035 187.329 409.714 186.486 408.028C185.652 406.333 185.236 404.383 185.236 402.176C185.236 399.96 185.662 398.005 186.514 396.31C187.366 394.605 188.569 393.279 190.122 392.332C191.685 391.376 193.531 390.898 195.662 390.898C197.433 390.898 199 391.224 200.364 391.878C201.737 392.522 202.83 393.436 203.645 394.619C204.459 395.794 204.923 397.167 205.037 398.739H200.122C199.923 397.687 199.45 396.812 198.702 396.111C197.963 395.401 196.973 395.045 195.733 395.045C194.682 395.045 193.759 395.33 192.963 395.898C192.168 396.456 191.547 397.261 191.102 398.312C190.667 399.364 190.449 400.623 190.449 402.091C190.449 403.578 190.667 404.856 191.102 405.926C191.538 406.987 192.149 407.806 192.935 408.384C193.73 408.952 194.663 409.236 195.733 409.236C196.491 409.236 197.168 409.094 197.764 408.81C198.37 408.516 198.877 408.095 199.284 407.545C199.691 406.996 199.971 406.329 200.122 405.543H205.037C204.914 407.086 204.459 408.455 203.673 409.648C202.887 410.831 201.817 411.759 200.463 412.432C199.109 413.095 197.518 413.426 195.69 413.426ZM215.538 413.44C214.155 413.44 212.91 413.194 211.802 412.702C210.703 412.2 209.832 411.461 209.188 410.486C208.554 409.51 208.237 408.308 208.237 406.878C208.237 405.647 208.464 404.629 208.918 403.824C209.373 403.019 209.993 402.375 210.779 401.892C211.565 401.409 212.451 401.045 213.435 400.798C214.43 400.543 215.457 400.358 216.518 400.244C217.796 400.112 218.833 399.993 219.629 399.889C220.424 399.776 221.002 399.605 221.362 399.378C221.731 399.141 221.915 398.777 221.915 398.284V398.199C221.915 397.129 221.598 396.3 220.964 395.713C220.329 395.126 219.415 394.832 218.222 394.832C216.963 394.832 215.964 395.107 215.225 395.656C214.496 396.205 214.004 396.854 213.748 397.602L208.947 396.92C209.326 395.595 209.951 394.487 210.822 393.597C211.693 392.697 212.758 392.025 214.018 391.58C215.277 391.125 216.669 390.898 218.194 390.898C219.245 390.898 220.291 391.021 221.333 391.267C222.375 391.513 223.326 391.92 224.188 392.489C225.05 393.047 225.741 393.81 226.262 394.776C226.792 395.741 227.058 396.949 227.058 398.398V413H222.114V410.003H221.944C221.631 410.609 221.191 411.177 220.623 411.707C220.064 412.228 219.359 412.65 218.506 412.972C217.664 413.284 216.674 413.44 215.538 413.44ZM216.873 409.662C217.905 409.662 218.8 409.458 219.558 409.051C220.315 408.634 220.897 408.085 221.305 407.403C221.721 406.722 221.93 405.978 221.93 405.173V402.602C221.769 402.735 221.494 402.858 221.106 402.972C220.727 403.085 220.301 403.185 219.827 403.27C219.354 403.355 218.885 403.431 218.421 403.497C217.957 403.563 217.555 403.62 217.214 403.668C216.447 403.772 215.76 403.942 215.154 404.179C214.548 404.416 214.07 404.747 213.719 405.173C213.369 405.59 213.194 406.13 213.194 406.793C213.194 407.74 213.54 408.455 214.231 408.938C214.922 409.42 215.803 409.662 216.873 409.662ZM249.472 396.949L244.785 397.46C244.652 396.987 244.42 396.542 244.089 396.125C243.767 395.708 243.331 395.372 242.782 395.116C242.233 394.861 241.56 394.733 240.765 394.733C239.695 394.733 238.795 394.965 238.066 395.429C237.346 395.893 236.991 396.494 237.001 397.233C236.991 397.867 237.223 398.384 237.697 398.781C238.18 399.179 238.975 399.506 240.083 399.761L243.805 400.557C245.869 401.002 247.403 401.707 248.407 402.673C249.42 403.639 249.932 404.903 249.941 406.466C249.932 407.839 249.529 409.051 248.734 410.102C247.948 411.144 246.854 411.958 245.452 412.545C244.051 413.133 242.441 413.426 240.623 413.426C237.952 413.426 235.803 412.867 234.174 411.75C232.545 410.623 231.575 409.056 231.262 407.048L236.276 406.565C236.504 407.55 236.987 408.294 237.725 408.795C238.464 409.297 239.425 409.548 240.609 409.548C241.83 409.548 242.81 409.297 243.549 408.795C244.297 408.294 244.671 407.673 244.671 406.935C244.671 406.31 244.43 405.794 243.947 405.386C243.473 404.979 242.735 404.667 241.731 404.449L238.009 403.668C235.916 403.232 234.368 402.498 233.364 401.466C232.361 400.424 231.863 399.108 231.873 397.517C231.863 396.172 232.228 395.008 232.967 394.023C233.715 393.028 234.752 392.261 236.077 391.722C237.413 391.172 238.951 390.898 240.694 390.898C243.251 390.898 245.263 391.442 246.731 392.531C248.208 393.62 249.122 395.093 249.472 396.949ZM265.076 391.182V395.159H252.533V391.182H265.076ZM255.63 385.955H260.772V406.438C260.772 407.129 260.876 407.659 261.085 408.028C261.302 408.388 261.586 408.634 261.937 408.767C262.287 408.9 262.675 408.966 263.102 408.966C263.424 408.966 263.717 408.942 263.982 408.895C264.257 408.848 264.465 408.805 264.607 408.767L265.474 412.787C265.199 412.882 264.806 412.986 264.295 413.099C263.793 413.213 263.177 413.279 262.448 413.298C261.16 413.336 260 413.142 258.968 412.716C257.936 412.28 257.117 411.608 256.511 410.699C255.914 409.79 255.621 408.653 255.63 407.29V385.955Z" fill="white"/>
<path d="M279.736 52C262.602 52.0002 248.353 64.3511 245.403 80.6357C230.239 80.8144 218 93.161 218 108.368C218 113.585 219.442 118.464 221.946 122.632C225.643 130.588 233.703 136.105 243.053 136.105H318.211C331.059 136.105 341.474 125.69 341.474 112.842C341.474 99.994 331.058 89.5791 318.21 89.5791H314.529C314.597 88.6931 314.632 87.7978 314.632 86.8945C314.632 67.6228 299.008 52 279.736 52Z" fill="#F0EFFD"/>
<g filter="url(#filter0_d_2007_80)">
<path d="M263.736 58C246.602 58.0002 232.353 70.3511 229.403 86.6357C214.239 86.8144 202 99.161 202 114.368C202 119.585 203.442 124.464 205.946 128.632C209.643 136.588 217.703 142.105 227.053 142.105H302.211C315.059 142.105 325.474 131.69 325.474 118.842C325.474 105.994 315.058 95.5791 302.21 95.5791H298.529C298.597 94.6931 298.632 93.7978 298.632 92.8945C298.632 73.6228 283.008 58 263.736 58Z" fill="#F0EFFD"/>
</g>
<g filter="url(#filter1_d_2007_80)">
<path d="M111.473 129.474L120.772 117.395H102.175L111.473 129.474ZM127.992 114.404L143.107 116.37L141.141 101.255L127.992 114.404ZM79.983 116.37L95.0982 114.404L81.9488 101.255L79.983 116.37ZM111.473 56.1055C95.6606 56.1057 82.8423 68.9247 82.8423 84.7373C82.8426 100.55 95.6608 113.368 111.473 113.368C127.286 113.368 140.105 100.55 140.105 84.7373C140.105 68.9245 127.286 56.1055 111.473 56.1055ZM144.131 94.0352L156.211 84.7373L144.131 75.4385V94.0352ZM66.7369 84.7373L78.816 94.0352V75.4385L66.7369 84.7373ZM128.134 55.0693L141.284 68.2188L143.25 53.1035L128.134 55.0693ZM81.8062 68.2188L94.9556 55.0693L79.8404 53.1035L81.8062 68.2188ZM102.175 52.0791H120.772L111.473 40L102.175 52.0791Z" fill="url(#paint1_radial_2007_80)"/>
<path d="M83.7364 57.8947C66.6014 57.8949 52.3527 70.2458 49.4034 86.5305C34.2385 86.7091 22.0002 99.0557 22 114.263C22 119.479 23.4421 124.359 25.9463 128.527C29.6427 136.482 37.7024 142 47.0528 142H122.211C135.059 142 145.474 131.584 145.474 118.737C145.474 105.889 135.058 95.4738 122.21 95.4738H118.529C118.597 94.5879 118.632 93.6925 118.632 92.7893C118.632 73.5175 103.008 57.8947 83.7364 57.8947Z" fill="#F0EFFD"/>
</g>
<g filter="url(#filter2_d_2007_80)">
</g>
<g filter="url(#filter3_d_2007_80)">
<path d="M21.7364 612C4.60146 612 -9.64732 624.351 -12.5966 640.636C-27.7615 640.814 -39.9998 653.161 -39.9999 668.368C-39.9999 673.585 -38.5579 678.464 -36.0537 682.632C-32.3572 690.588 -24.2975 696.105 -14.9472 696.105H60.211C73.0587 696.105 83.4737 685.69 83.4737 672.842C83.4735 659.994 73.0578 649.579 60.21 649.579H56.5294C56.5968 648.693 56.6319 647.798 56.6319 646.895C56.6318 627.623 41.0081 612 21.7364 612Z" fill="#F0EFFD"/>
<circle cx="25" cy="675" r="8" fill="#4D99FF"/>
<circle cx="30" cy="701" r="8" fill="#4D99FF"/>
<circle cx="-6.00001" cy="688" r="8" fill="#4D99FF"/>
<circle cx="-3.00001" cy="717" r="8" fill="#4D99FF"/>
</g>
<g filter="url(#filter4_d_2007_80)">
<path d="M349.736 612C332.601 612 318.353 624.351 315.403 640.636C300.238 640.814 288 653.161 288 668.368C288 673.585 289.442 678.464 291.946 682.632C295.643 690.588 303.702 696.105 313.053 696.105H388.211C401.059 696.105 411.474 685.69 411.474 672.842C411.474 659.994 401.058 649.579 388.21 649.579H384.529C384.597 648.693 384.632 647.798 384.632 646.895C384.632 627.623 369.008 612 349.736 612Z" fill="#F0EFFD"/>
<path d="M332 697H311.5L339.725 667.785L340 688.5H357L322 725L332 697Z" fill="#FEE65F"/>
</g>
<g filter="url(#filter5_d_2007_80)">
<path d="M182.736 183C165.601 183 151.353 195.351 148.403 211.636C133.238 211.814 121 224.161 121 239.368C121 244.585 122.442 249.464 124.946 253.632C128.643 261.588 136.702 267.105 146.053 267.105H221.211C234.059 267.105 244.474 256.69 244.474 243.842C244.474 230.994 234.058 220.579 221.21 220.579H217.529C217.597 219.693 217.632 218.798 217.632 217.895C217.632 198.623 202.008 183 182.736 183Z" fill="#F0EFFD"/>
<path d="M165 268H144.5L172.725 238.785L173 259.5H190L155 296L165 268Z" fill="#FEE65F"/>
</g>
<g filter="url(#filter6_d_2007_80)">
<path d="M185.736 612C168.601 612 154.353 624.351 151.403 640.636C136.238 640.814 124 653.161 124 668.368C124 673.585 125.442 678.464 127.946 682.632C131.643 690.588 139.702 696.105 149.053 696.105H224.211C237.059 696.105 247.474 685.69 247.474 672.842C247.474 659.994 237.058 649.579 224.21 649.579H220.529C220.597 648.693 220.632 647.798 220.632 646.895C220.632 627.623 205.008 612 185.736 612Z" fill="#F0EFFD"/>
<path fill-rule="evenodd" clip-rule="evenodd" d="M153.77 712.729C153.804 712.669 153.84 712.609 153.876 712.551C156.035 708.51 163.28 705.872 166.356 704.91L166.359 704.911C166.701 704.774 167.112 704.794 167.47 705C167.827 705.206 168.049 705.552 168.102 705.918L168.104 705.919C168.809 709.066 170.149 716.662 167.723 720.553C167.692 720.611 167.659 720.67 167.625 720.728C165.543 724.334 160.754 725.466 156.928 723.257C153.102 721.048 151.688 716.335 153.77 712.729Z" fill="#B6E1FF"/>
<path fill-rule="evenodd" clip-rule="evenodd" d="M150.77 684.729C150.804 684.669 150.84 684.609 150.876 684.551C153.035 680.51 160.28 677.872 163.356 676.91L163.359 676.911C163.701 676.774 164.112 676.794 164.47 677C164.827 677.206 165.049 677.552 165.102 677.918L165.104 677.919C165.809 681.066 167.149 688.662 164.723 692.553C164.692 692.611 164.659 692.67 164.625 692.728C162.543 696.334 157.754 697.466 153.928 695.257C150.102 693.048 148.688 688.335 150.77 684.729Z" fill="#B6E1FF"/>
<path fill-rule="evenodd" clip-rule="evenodd" d="M186.77 696.729C186.804 696.669 186.84 696.609 186.876 696.551C189.035 692.51 196.28 689.872 199.356 688.91L199.359 688.911C199.701 688.774 200.112 688.794 200.47 689C200.827 689.206 201.049 689.552 201.102 689.918L201.104 689.919C201.809 693.066 203.149 700.662 200.723 704.553C200.692 704.611 200.659 704.67 200.625 704.728C198.543 708.334 193.754 709.466 189.928 707.257C186.102 705.048 184.688 700.335 186.77 696.729Z" fill="#B6E1FF"/>
<path fill-rule="evenodd" clip-rule="evenodd" d="M181.77 670.729C181.804 670.669 181.84 670.609 181.876 670.551C184.035 666.51 191.28 663.872 194.356 662.91L194.359 662.911C194.701 662.774 195.112 662.794 195.47 663C195.827 663.206 196.049 663.552 196.102 663.918L196.104 663.919C196.809 667.066 198.149 674.662 195.723 678.553C195.692 678.611 195.659 678.67 195.625 678.728C193.543 682.334 188.754 683.466 184.928 681.257C181.102 679.048 179.688 674.335 181.77 670.729Z" fill="#B6E1FF"/>
</g>
<g filter="url(#filter7_d_2007_80)">
<path d="M97.7364 459C80.6015 459 66.3527 471.351 63.4034 487.636C48.2385 487.814 36.0002 500.161 36.0001 515.368C36.0001 520.585 37.4421 525.464 39.9464 529.632C43.6428 537.588 51.7025 543.105 61.0528 543.105H136.211C149.059 543.105 159.474 532.69 159.474 519.842C159.474 506.994 149.058 496.579 136.21 496.579H132.529C132.597 495.693 132.632 494.798 132.632 493.895C132.632 474.623 117.008 459 97.7364 459Z" fill="#F0EFFD"/>
<rect x="44" y="563" width="107" height="9" rx="4.5" fill="#F0EFFD"/>
<rect x="44" y="549" width="107" height="9" rx="4.5" fill="#F0EFFD"/>
</g>
<g filter="url(#filter8_d_2007_80)">
<path d="M346.736 183C329.601 183 315.353 195.351 312.403 211.636C297.238 211.814 285 224.161 285 239.368C285 244.585 286.442 249.464 288.946 253.632C292.643 261.588 300.702 267.105 310.053 267.105H385.211C398.059 267.105 408.474 256.69 408.474 243.842C408.474 230.994 398.058 220.579 385.21 220.579H381.529C381.597 219.693 381.632 218.798 381.632 217.895C381.632 198.623 366.008 183 346.736 183Z" fill="#F0EFFD"/>
<rect x="293" y="287" width="107" height="9" rx="4.5" fill="#F0EFFD"/>
<rect x="293" y="273" width="107" height="9" rx="4.5" fill="#F0EFFD"/>
</g>
<g filter="url(#filter9_d_2007_80)">
<path d="M261.736 452C244.601 452 230.353 464.351 227.403 480.636C212.238 480.814 200 493.161 200 508.368C200 513.585 201.442 518.464 203.946 522.632C207.643 530.588 215.702 536.105 225.053 536.105H300.211C313.059 536.105 323.474 525.69 323.474 512.842C323.474 499.994 313.058 489.579 300.21 489.579H296.529C296.597 488.693 296.632 487.798 296.632 486.895C296.632 467.623 281.008 452 261.736 452Z" fill="#F0EFFD"/>
<path d="M235 515L236.8 523.882L245.392 521L238.6 527L245.392 533L236.8 530.118L235 539L233.2 530.118L224.608 533L231.4 527L224.608 521L233.2 523.882L235 515Z" fill="#4D99FF"/>
<path d="M266 502L267.8 510.882L276.392 508L269.6 514L276.392 520L267.8 517.118L266 526L264.2 517.118L255.608 520L262.4 514L255.608 508L264.2 510.882L266 502Z" fill="#4D99FF"/>
<path d="M271 529L272.8 537.882L281.392 535L274.6 541L281.392 547L272.8 544.118L271 553L269.2 544.118L260.608 547L267.4 541L260.608 535L269.2 537.882L271 529Z" fill="#4D99FF"/>
<path d="M238 542L239.8 550.882L248.392 548L241.6 554L248.392 560L239.8 557.118L238 566L236.2 557.118L227.608 560L234.4 554L227.608 548L236.2 550.882L238 542Z" fill="#4D99FF"/>
</g>
<g filter="url(#filter10_d_2007_80)">
<path d="M25.7364 284.474L35.0352 272.395H16.4385L25.7364 284.474ZM42.2549 269.404L57.3702 271.37L55.4044 256.255L42.2549 269.404ZM-5.75385 271.37L9.36139 269.404L-3.78802 256.255L-5.75385 271.37ZM25.7364 211.105C9.92382 211.106 -2.89447 223.925 -2.89447 239.737C-2.89422 255.55 9.92397 268.368 25.7364 268.368C41.549 268.368 54.368 255.55 54.3682 239.737C54.3682 223.925 41.5492 211.105 25.7364 211.105ZM58.3946 249.035L70.4737 239.737L58.3946 230.438V249.035ZM-18.9999 239.737L-6.92084 249.035V230.438L-18.9999 239.737ZM42.3975 210.069L55.5469 223.219L57.5128 208.104L42.3975 210.069ZM-3.9306 223.219L9.21881 210.069L-5.89642 208.104L-3.9306 223.219ZM16.4385 207.079H35.0352L25.7364 195L16.4385 207.079Z" fill="url(#paint2_radial_2007_80)"/>
</g>
</g>
<defs>
<filter id="filter0_d_2007_80" x="152" y="28" width="223.474" height="184.105" filterUnits="userSpaceOnUse" color-interpolation-filters="sRGB">
<feFlood flood-opacity="0" result="BackgroundImageFix"/>
<feColorMatrix in="SourceAlpha" type="matrix" values="0 0 0 0 0 0 0 0 0 0 0 0 0 0 0 0 0 0 127 0" result="hardAlpha"/>
<feOffset dy="20"/>
<feGaussianBlur stdDeviation="25"/>
<feComposite in2="hardAlpha" operator="out"/>
<feColorMatrix type="matrix" values="0 0 0 0 0.27451 0 0 0 0 0.576471 0 0 0 0 1 0 0 0 1 0"/>
<feBlend mode="normal" in2="BackgroundImageFix" result="effect1_dropShadow_2007_80"/>
<feBlend mode="normal" in="SourceGraphic" in2="effect1_dropShadow_2007_80" result="shape"/>
</filter>
<filter id="filter1_d_2007_80" x="-28" y="10" width="234.21" height="202" filterUnits="userSpaceOnUse" color-interpolation-filters="sRGB">
<feFlood flood-opacity="0" result="BackgroundImageFix"/>
<feColorMatrix in="SourceAlpha" type="matrix" values="0 0 0 0 0 0 0 0 0 0 0 0 0 0 0 0 0 0 127 0" result="hardAlpha"/>
<feOffset dy="20"/>
<feGaussianBlur stdDeviation="25"/>
<feComposite in2="hardAlpha" operator="out"/>
<feColorMatrix type="matrix" values="0 0 0 0 0.27451 0 0 0 0 0.576471 0 0 0 0 1 0 0 0 1 0"/>
<feBlend mode="normal" in2="BackgroundImageFix" result="effect1_dropShadow_2007_80"/>
<feBlend mode="normal" in="SourceGraphic" in2="effect1_dropShadow_2007_80" result="shape"/>
</filter>
<filter id="filter2_d_2007_80" x="-157" y="31" width="189.474" height="189.474" filterUnits="userSpaceOnUse" color-interpolation-filters="sRGB">
<feFlood flood-opacity="0" result="BackgroundImageFix"/>
<feColorMatrix in="SourceAlpha" type="matrix" values="0 0 0 0 0 0 0 0 0 0 0 0 0 0 0 0 0 0 127 0" result="hardAlpha"/>
<feOffset dy="20"/>
<feGaussianBlur stdDeviation="25"/>
<feComposite in2="hardAlpha" operator="out"/>
<feColorMatrix type="matrix" values="0 0 0 0 0.27451 0 0 0 0 0.576471 0 0 0 0 1 0 0 0 1 0"/>
<feBlend mode="normal" in2="BackgroundImageFix" result="effect1_dropShadow_2007_80"/>
<feBlend mode="normal" in="SourceGraphic" in2="effect1_dropShadow_2007_80" result="shape"/>
</filter>
<filter id="filter3_d_2007_80" x="-89.9999" y="582" width="223.474" height="213" filterUnits="userSpaceOnUse" color-interpolation-filters="sRGB">
<feFlood flood-opacity="0" result="BackgroundImageFix"/>
<feColorMatrix in="SourceAlpha" type="matrix" values="0 0 0 0 0 0 0 0 0 0 0 0 0 0 0 0 0 0 127 0" result="hardAlpha"/>
<feOffset dy="20"/>
<feGaussianBlur stdDeviation="25"/>
<feComposite in2="hardAlpha" operator="out"/>
<feColorMatrix type="matrix" values="0 0 0 0 0.27451 0 0 0 0 0.576471 0 0 0 0 1 0 0 0 1 0"/>
<feBlend mode="normal" in2="BackgroundImageFix" result="effect1_dropShadow_2007_80"/>
<feBlend mode="normal" in="SourceGraphic" in2="effect1_dropShadow_2007_80" result="shape"/>
</filter>
<filter id="filter4_d_2007_80" x="238" y="582" width="223.474" height="213" filterUnits="userSpaceOnUse" color-interpolation-filters="sRGB">
<feFlood flood-opacity="0" result="BackgroundImageFix"/>
<feColorMatrix in="SourceAlpha" type="matrix" values="0 0 0 0 0 0 0 0 0 0 0 0 0 0 0 0 0 0 127 0" result="hardAlpha"/>
<feOffset dy="20"/>
<feGaussianBlur stdDeviation="25"/>
<feComposite in2="hardAlpha" operator="out"/>
<feColorMatrix type="matrix" values="0 0 0 0 0.27451 0 0 0 0 0.576471 0 0 0 0 1 0 0 0 1 0"/>
<feBlend mode="normal" in2="BackgroundImageFix" result="effect1_dropShadow_2007_80"/>
<feBlend mode="normal" in="SourceGraphic" in2="effect1_dropShadow_2007_80" result="shape"/>
</filter>
<filter id="filter5_d_2007_80" x="71.0001" y="153" width="223.474" height="213" filterUnits="userSpaceOnUse" color-interpolation-filters="sRGB">
<feFlood flood-opacity="0" result="BackgroundImageFix"/>
<feColorMatrix in="SourceAlpha" type="matrix" values="0 0 0 0 0 0 0 0 0 0 0 0 0 0 0 0 0 0 127 0" result="hardAlpha"/>
<feOffset dy="20"/>
<feGaussianBlur stdDeviation="25"/>
<feComposite in2="hardAlpha" operator="out"/>
<feColorMatrix type="matrix" values="0 0 0 0 0.27451 0 0 0 0 0.576471 0 0 0 0 1 0 0 0 1 0"/>
<feBlend mode="normal" in2="BackgroundImageFix" result="effect1_dropShadow_2007_80"/>
<feBlend mode="normal" in="SourceGraphic" in2="effect1_dropShadow_2007_80" result="shape"/>
</filter>
<filter id="filter6_d_2007_80" x="74.0001" y="582" width="223.474" height="212.386" filterUnits="userSpaceOnUse" color-interpolation-filters="sRGB">
<feFlood flood-opacity="0" result="BackgroundImageFix"/>
<feColorMatrix in="SourceAlpha" type="matrix" values="0 0 0 0 0 0 0 0 0 0 0 0 0 0 0 0 0 0 127 0" result="hardAlpha"/>
<feOffset dy="20"/>
<feGaussianBlur stdDeviation="25"/>
<feComposite in2="hardAlpha" operator="out"/>
<feColorMatrix type="matrix" values="0 0 0 0 0.27451 0 0 0 0 0.576471 0 0 0 0 1 0 0 0 1 0"/>
<feBlend mode="normal" in2="BackgroundImageFix" result="effect1_dropShadow_2007_80"/>
<feBlend mode="normal" in="SourceGraphic" in2="effect1_dropShadow_2007_80" result="shape"/>
</filter>
<filter id="filter7_d_2007_80" x="-13.9999" y="429" width="223.474" height="213" filterUnits="userSpaceOnUse" color-interpolation-filters="sRGB">
<feFlood flood-opacity="0" result="BackgroundImageFix"/>
<feColorMatrix in="SourceAlpha" type="matrix" values="0 0 0 0 0 0 0 0 0 0 0 0 0 0 0 0 0 0 127 0" result="hardAlpha"/>
<feOffset dy="20"/>
<feGaussianBlur stdDeviation="25"/>
<feComposite in2="hardAlpha" operator="out"/>
<feColorMatrix type="matrix" values="0 0 0 0 0.27451 0 0 0 0 0.576471 0 0 0 0 1 0 0 0 1 0"/>
<feBlend mode="normal" in2="BackgroundImageFix" result="effect1_dropShadow_2007_80"/>
<feBlend mode="normal" in="SourceGraphic" in2="effect1_dropShadow_2007_80" result="shape"/>
</filter>
<filter id="filter8_d_2007_80" x="235" y="153" width="223.474" height="213" filterUnits="userSpaceOnUse" color-interpolation-filters="sRGB">
<feFlood flood-opacity="0" result="BackgroundImageFix"/>
<feColorMatrix in="SourceAlpha" type="matrix" values="0 0 0 0 0 0 0 0 0 0 0 0 0 0 0 0 0 0 127 0" result="hardAlpha"/>
<feOffset dy="20"/>
<feGaussianBlur stdDeviation="25"/>
<feComposite in2="hardAlpha" operator="out"/>
<feColorMatrix type="matrix" values="0 0 0 0 0.27451 0 0 0 0 0.576471 0 0 0 0 1 0 0 0 1 0"/>
<feBlend mode="normal" in2="BackgroundImageFix" result="effect1_dropShadow_2007_80"/>
<feBlend mode="normal" in="SourceGraphic" in2="effect1_dropShadow_2007_80" result="shape"/>
</filter>
<filter id="filter9_d_2007_80" x="150" y="422" width="223.474" height="214" filterUnits="userSpaceOnUse" color-interpolation-filters="sRGB">
<feFlood flood-opacity="0" result="BackgroundImageFix"/>
<feColorMatrix in="SourceAlpha" type="matrix" values="0 0 0 0 0 0 0 0 0 0 0 0 0 0 0 0 0 0 127 0" result="hardAlpha"/>
<feOffset dy="20"/>
<feGaussianBlur stdDeviation="25"/>
<feComposite in2="hardAlpha" operator="out"/>
<feColorMatrix type="matrix" values="0 0 0 0 0.27451 0 0 0 0 0.576471 0 0 0 0 1 0 0 0 1 0"/>
<feBlend mode="normal" in2="BackgroundImageFix" result="effect1_dropShadow_2007_80"/>
<feBlend mode="normal" in="SourceGraphic" in2="effect1_dropShadow_2007_80" result="shape"/>
</filter>
<filter id="filter10_d_2007_80" x="-68.9999" y="165" width="189.474" height="189.474" filterUnits="userSpaceOnUse" color-interpolation-filters="sRGB">
<feFlood flood-opacity="0" result="BackgroundImageFix"/>
<feColorMatrix in="SourceAlpha" type="matrix" values="0 0 0 0 0 0 0 0 0 0 0 0 0 0 0 0 0 0 127 0" result="hardAlpha"/>
<feOffset dy="20"/>
<feGaussianBlur stdDeviation="25"/>
<feComposite in2="hardAlpha" operator="out"/>
<feColorMatrix type="matrix" values="0 0 0 0 0.27451 0 0 0 0 0.576471 0 0 0 0 1 0 0 0 1 0"/>
<feBlend mode="normal" in2="BackgroundImageFix" result="effect1_dropShadow_2007_80"/>
<feBlend mode="normal" in="SourceGraphic" in2="effect1_dropShadow_2007_80" result="shape"/>
</filter>
<linearGradient id="paint0_linear_2007_80" x1="0" y1="0" x2="360" y2="800" gradientUnits="userSpaceOnUse">
<stop stop-color="#4693FF"/>
<stop offset="1" stop-color="#93D6F8"/>
</linearGradient>
<radialGradient id="paint1_radial_2007_80" cx="0" cy="0" r="1" gradientUnits="userSpaceOnUse" gradientTransform="translate(111.474 84.7368) rotate(90) scale(44.7368)">
<stop stop-color="#FFE15F"/>
<stop offset="1" stop-color="#FBF55F"/>
</radialGradient>
<radialGradient id="paint2_radial_2007_80" cx="0" cy="0" r="1" gradientUnits="userSpaceOnUse" gradientTransform="translate(25.7369 239.737) rotate(90) scale(44.7368)">
<stop stop-color="#FFE15F"/>
<stop offset="1" stop-color="#FBF55F"/>
</radialGradient>
<clipPath id="clip0_2007_80">
<rect width="360" height="800" fill="white"/>
</clipPath>
</defs>
</svg>
